<svg xmlns="http://www.w3.org/2000/svg" viewBox="0 0 241.97 306"><defs><style>.cls-1{fill:#f05a28;}.cls-2{fill:#fff;}</style></defs><g id="Layer_2" data-name="Layer 2"><g id="Layer_1-2" data-name="Layer 1"><path class="cls-1" d="M190.92,229.5H51.05a38.25,38.25,0,0,1-38.12-35.06L.14,41.44A38.24,38.24,0,0,1,38.25,0H203.71a38.24,38.24,0,0,1,38.12,41.44L229,194.44A38.25,38.25,0,0,1,190.92,229.5Z"/><path class="cls-2" d="M121,197A82.24,82.24,0,1,1,179.14,56.6a15.31,15.31,0,0,1-1.94,23.28c-6.15,4.46-14.67,3.28-20.1-2a51.62,51.62,0,0,0-72.63.39C60.7,102,65,143.4,97.37,160.8a43.33,43.33,0,0,0,8.63,3.49c19,5.34,38,.29,51.2-12.73,5-4.94,12.69-6.38,18.74-2.77a15.33,15.33,0,0,1,3.2,24.11A81.74,81.74,0,0,1,121,197Z"/><circle class="cls-1" cx="82.73" cy="279.23" r="26.77"/><circle class="cls-1" cx="159.23" cy="279.22" r="26.77"/></g></g></svg>