<svg width="20" height="20" viewBox="0 0 20 20" fill="none" xmlns="http://www.w3.org/2000/svg">
<path fill-rule="evenodd" clip-rule="evenodd" d="M7.65714 2.8C7.65714 2.35817 8.01532 2 8.45714 2H11.5429C11.9847 2 12.3429 2.35817 12.3429 2.8V4.36272L12.4135 4.39802L13.5486 3.26289C13.861 2.95047 14.3676 2.95047 14.68 3.26289L16.7371 5.32003C17.0495 5.63245 17.0495 6.13898 16.7371 6.4514L15.602 7.58653L15.6373 7.65714H17.2C17.6418 7.65714 18 8.01532 18 8.45714V11.5429C18 11.9847 17.6418 12.3429 17.2 12.3429H15.6373L15.602 12.4135L16.7371 13.5486C17.0495 13.861 17.0495 14.3676 16.7371 14.68L14.68 16.7371C14.3676 17.0495 13.861 17.0495 13.5486 16.7371L12.4135 15.602L12.3429 15.6373V17.2C12.3429 17.6418 11.9847 18 11.5429 18H8.45714C8.01532 18 7.65714 17.6418 7.65714 17.2V15.6373L7.58653 15.602L6.4514 16.7371C6.13898 17.0495 5.63245 17.0495 5.32003 16.7371L3.26289 14.68C2.95047 14.3676 2.95047 13.861 3.26289 13.5486L4.39802 12.4135L4.36272 12.3429H2.8C2.35817 12.3429 2 11.9847 2 11.5429V8.45714C2 8.01532 2.35817 7.65714 2.8 7.65714H4.36272L4.39802 7.58653L3.26289 6.4514C2.95047 6.13898 2.95047 5.63245 3.26289 5.32003L5.32003 3.26289C5.63245 2.95047 6.13898 2.95047 6.4514 3.26289L7.58653 4.39802L7.65714 4.36272V2.8ZM9.25714 3.6V4.85714C9.25714 5.16016 9.08594 5.43717 8.81491 5.57268L7.78634 6.08697C7.47835 6.24097 7.10637 6.1806 6.86289 5.93711L5.88571 4.95994L4.95994 5.88571L5.93711 6.86289C6.1806 7.10637 6.24097 7.47835 6.08697 7.78634L5.57268 8.81491C5.43717 9.08594 5.16016 9.25714 4.85714 9.25714H3.6V10.7429H4.85714C5.16016 10.7429 5.43717 10.9141 5.57268 11.1851L6.08697 12.2137C6.24097 12.5216 6.1806 12.8936 5.93711 13.1371L4.95994 14.1143L5.88571 15.0401L6.86289 14.0629C7.10637 13.8194 7.47835 13.759 7.78634 13.913L8.81491 14.4273C9.08594 14.5628 9.25714 14.8398 9.25714 15.1429V16.4H10.7429V15.1429C10.7429 14.8398 10.9141 14.5628 11.1851 14.4273L12.2137 13.913C12.5216 13.759 12.8936 13.8194 13.1371 14.0629L14.1143 15.0401L15.0401 14.1143L14.0629 13.1371C13.8194 12.8936 13.759 12.5216 13.913 12.2137L14.4273 11.1851C14.5628 10.9141 14.8398 10.7429 15.1429 10.7429H16.4V9.25714H15.1429C14.8398 9.25714 14.5628 9.08594 14.4273 8.81491L13.913 7.78634C13.759 7.47835 13.8194 7.10637 14.0629 6.86289L15.0401 5.88571L14.1143 4.95994L13.1371 5.93711C12.8936 6.1806 12.5216 6.24097 12.2137 6.08697L11.1851 5.57268C10.9141 5.43717 10.7429 5.16016 10.7429 4.85714V3.6H9.25714Z" fill="#9E9E9E"/>
<path fill-rule="evenodd" clip-rule="evenodd" d="M10 8.8C9.33726 8.8 8.8 9.33726 8.8 10C8.8 10.6627 9.33726 11.2 10 11.2C10.6627 11.2 11.2 10.6627 11.2 10C11.2 9.33726 10.6627 8.8 10 8.8ZM7.2 10C7.2 8.4536 8.4536 7.2 10 7.2C11.5464 7.2 12.8 8.4536 12.8 10C12.8 11.5464 11.5464 12.8 10 12.8C8.4536 12.8 7.2 11.5464 7.2 10Z" fill="#9E9E9E"/>
</svg>
