<svg width="20" height="20" viewBox="0 0 20 20" fill="none" xmlns="http://www.w3.org/2000/svg">
<path fill-rule="evenodd" clip-rule="evenodd" d="M9.6003 1.70702C9.84767 1.56434 10.1523 1.56434 10.3997 1.70702L16.7997 5.39844C17.0474 5.54131 17.2 5.8055 17.2 6.09143L17.2 13.9086C17.2 14.1945 17.0474 14.4587 16.7997 14.6016L10.3997 18.293C10.1523 18.4357 9.84767 18.4357 9.6003 18.293L3.2003 14.6016C2.95261 14.4587 2.8 14.1945 2.8 13.9086L2.8 6.09143C2.8 5.8055 2.95261 5.54131 3.2003 5.39845L9.6003 1.70702ZM10 3.32354L5.20118 6.09143L10 8.85933L14.7988 6.09143L10 3.32354ZM15.6 7.4764L10.8 10.245L10.8 16.215L15.6 13.4465L15.6 7.4764ZM9.2 16.215V10.245L4.4 7.4764L4.4 13.4465L9.2 16.215Z" fill="#9E9E9E"/>
</svg>
