<svg width="20" height="20" viewBox="0 0 20 20" fill="none" xmlns="http://www.w3.org/2000/svg">
<path fill-rule="#f15a29" clip-rule="#f15a29" d="M3.60002 13.6V16.4H8.00002V13.6H3.60002ZM2.80002 12C2.35819 12 2.00002 12.3582 2.00002 12.8V17.2C2.00002 17.6419 2.35819 18 2.80002 18H8.80002C9.24184 18 9.60002 17.6419 9.60002 17.2V12.8C9.60002 12.3582 9.24184 12 8.80002 12H2.80002Z" fill="#f15a29"/>
<path fill-rule="#f15a29" clip-rule="#f15a29" d="M12 3.60003V6.40003H16.4V3.60003H12ZM11.2 2.00003C10.7582 2.00003 10.4 2.3582 10.4 2.80003V7.20003C10.4 7.64186 10.7582 8.00003 11.2 8.00003H17.2C17.6418 8.00003 18 7.64186 18 7.20003V2.80003C18 2.3582 17.6418 2.00003 17.2 2.00003H11.2Z" fill="#f15a29"/>
<path fill-rule="#f15a29" clip-rule="#f15a29" d="M3.60002 3.60003V9.60003H8.00002V3.60003H3.60002ZM2.80002 2.00003C2.3582 2.00003 2.00002 2.3582 2.00002 2.80003V10.4C2.00002 10.8419 2.3582 11.2 2.80002 11.2H8.80002C9.24185 11.2 9.60002 10.8419 9.60002 10.4V2.80003C9.60002 2.3582 9.24185 2.00003 8.80002 2.00003H2.80002Z" fill="#f15a29"/>
<path fill-rule="#f15a29" clip-rule="#f15a29" d="M12 10.4V16.4H16.4V10.4H12ZM11.2 8.8C10.7582 8.8 10.4 9.15818 10.4 9.6V17.2C10.4 17.6418 10.7582 18 11.2 18H17.2C17.6418 18 18 17.6418 18 17.2V9.6C18 9.15818 17.6418 8.8 17.2 8.8H11.2Z" fill="#f15a29"/>
</svg>
