<svg width="20" height="20" viewBox="0 0 20 20" fill="none" xmlns="http://www.w3.org/2000/svg">
<path fill-rule="evenodd" clip-rule="evenodd" d="M2.4 2.8C1.95817 2.8 1.6 3.15818 1.6 3.6C1.6 4.04183 1.95817 4.4 2.4 4.4H4.08396L5.12582 13.7767C5.21585 14.587 5.90075 15.2 6.71603 15.2H7.79713C7.02525 15.2015 6.39999 15.8278 6.39999 16.6C6.39999 17.3732 7.02679 18 7.79999 18C8.57319 18 9.19999 17.3732 9.19999 16.6C9.19999 15.8278 8.57474 15.2015 7.80285 15.2H13.7971C13.0252 15.2015 12.4 15.8278 12.4 16.6C12.4 17.3732 13.0268 18 13.8 18C14.5732 18 15.2 17.3732 15.2 16.6C15.2 15.8278 14.5747 15.2015 13.8029 15.2H16.4C16.8418 15.2 17.2 14.8418 17.2 14.4C17.2 13.9582 16.8418 13.6 16.4 13.6H6.71603L6.62714 12.8H15.3137C16.1034 12.8 16.775 12.2238 16.8951 11.4433L17.9907 4.32164C18.0579 3.88495 17.7583 3.47648 17.3216 3.40929C16.8849 3.34211 16.4765 3.64165 16.4093 4.07834L15.3137 11.2H6.44937L5.67418 4.22331C5.58415 3.41302 4.89924 2.8 4.08396 2.8H2.4ZM7.99999 16.6C7.99999 16.7105 7.91045 16.8 7.79999 16.8C7.68954 16.8 7.59999 16.7105 7.59999 16.6C7.59999 16.4895 7.68954 16.4 7.79999 16.4C7.91045 16.4 7.99999 16.4895 7.99999 16.6ZM13.8 16.8C13.9104 16.8 14 16.7105 14 16.6C14 16.4895 13.9104 16.4 13.8 16.4C13.6895 16.4 13.6 16.4895 13.6 16.6C13.6 16.7105 13.6895 16.8 13.8 16.8ZM9.99999 5.6V3.2L11.6 3.2V5.6L14 5.6V7.2H11.6V9.6H9.99999V7.2H7.59999V5.6L9.99999 5.6Z" fill="#9E9E9E"/>
</svg>
