<svg width="20" height="20" viewBox="0 0 20 20" fill="none" xmlns="http://www.w3.org/2000/svg">
<path fill-rule="evenodd" clip-rule="evenodd" d="M10.0295 2.2C5.75115 2.2 2.26657 5.6684 2.26413 9.93291C2.26413 11.266 2.60506 12.5678 3.25862 13.7254L2.11528 17.8809L6.38771 16.7668C7.51047 17.3576 8.75993 17.6681 10.0294 17.6713H10.0323C14.313 17.6713 17.7976 14.2028 17.8 9.9354C17.8 7.91497 17.0285 6.00983 15.6197 4.56067L15.6304 4.53334L15.5345 4.44067C14.0532 3.00999 12.1037 2.2 10.0295 2.2ZM3.94806 9.90596C3.94806 6.56883 6.68051 3.8445 10.0442 3.8445C11.6735 3.8445 13.2011 4.47887 14.3511 5.62892L14.352 5.62977C14.9189 6.18993 15.3686 6.85739 15.6748 7.59319C15.981 8.329 16.1377 9.11867 16.1356 9.91565C16.131 13.2508 13.4005 15.975 10.0418 15.975H10.0295C8.94226 15.975 7.86684 15.6803 6.92743 15.1293L6.92679 15.129L6.62869 14.951L4.50815 15.5032L5.07812 13.44L4.8767 13.1282C4.26991 12.163 3.94801 11.0461 3.94806 9.90596ZM7.35331 6.22753C7.18326 6.22753 6.9218 6.28991 6.70414 6.5165L6.70048 6.52042C6.68877 6.53328 6.67537 6.5476 6.66056 6.56342C6.4567 6.78112 5.98528 7.28456 5.98528 8.22113C5.98528 8.72796 6.17018 9.21489 6.35779 9.58274C6.52785 9.91618 6.70848 10.1672 6.77567 10.2606L6.79367 10.2857L6.7965 10.2897L6.79952 10.2936L6.79966 10.2938C6.79976 10.2939 6.7999 10.2941 6.80009 10.2944L6.80174 10.2966L6.80735 10.3043L6.81611 10.3165L6.82534 10.3295L6.83545 10.3438L6.88317 10.4109C6.93078 10.4774 6.99571 10.5668 7.07692 10.673C7.23924 10.8854 7.46665 11.1655 7.75165 11.4678C8.31983 12.0706 9.12534 12.771 10.1091 13.1943L10.1105 13.1949C10.5122 13.3639 10.8365 13.474 11.0935 13.5613L11.202 13.5983L11.2064 13.5997C11.6987 13.7557 12.1454 13.7329 12.4876 13.6835L12.4915 13.6829C12.7074 13.6474 13.0127 13.519 13.2812 13.3472C13.5443 13.1788 13.8214 12.9376 13.9241 12.6502C14.0103 12.4103 14.0543 12.1888 14.0701 12.0125C14.078 11.9245 14.0791 11.8449 14.074 11.7779C14.0696 11.7203 14.0589 11.6444 14.025 11.5831C13.9735 11.4889 13.8894 11.4329 13.819 11.3944C13.7616 11.3631 13.6905 11.332 13.6183 11.3004L13.6182 11.3004L13.5696 11.2791L13.3351 11.1756L13.3291 11.2108C13.2084 11.1517 13.0614 11.0802 12.9153 11.01C12.6428 10.8791 12.3567 10.7443 12.2591 10.7079L12.2552 10.7066C12.1754 10.6781 12.0576 10.6362 11.9357 10.6503C11.7908 10.6672 11.6816 10.7538 11.597 10.8812C11.4825 11.0533 11.1284 11.4681 11.0163 11.5931C10.9833 11.6299 10.9693 11.6305 10.9672 11.6306C10.9564 11.6319 10.923 11.6308 10.8428 11.5952C10.8063 11.577 10.7597 11.5566 10.7041 11.5323L10.704 11.5323L10.704 11.5323C10.4317 11.4132 9.94345 11.1997 9.36926 10.6847L9.36868 10.6842C8.82851 10.2036 8.46556 9.60737 8.35664 9.4215L8.35627 9.42088C8.33921 9.392 8.33581 9.37577 8.33508 9.37015C8.33453 9.36588 8.33491 9.36425 8.33588 9.3616C8.33749 9.35719 8.34197 9.34797 8.35435 9.33236C8.36722 9.31615 8.38364 9.29906 8.40721 9.2755C8.47896 9.20374 8.56258 9.10311 8.6377 9.0127L8.63773 9.01266C8.66133 8.98426 8.68414 8.9569 8.70543 8.93173L8.70854 8.92786C8.79231 8.82369 8.83688 8.73728 8.88039 8.65291L8.8804 8.65289C8.89228 8.62984 8.90409 8.60695 8.91659 8.58389L8.91963 8.5783L8.9223 8.57253C9.02038 8.36053 8.96273 8.18789 8.90257 8.06756C8.88331 8.02904 8.78132 7.78354 8.65834 7.48572L8.61062 7.37014L8.61059 7.37008C8.50427 7.1125 8.39368 6.84458 8.32443 6.68192C8.24037 6.4773 8.13698 6.34387 7.99922 6.27908C7.88808 6.22681 7.76617 6.23441 7.72586 6.23692L7.72034 6.23726C7.60543 6.22752 7.47651 6.22752 7.35879 6.22753H7.35876H7.35331Z" fill="white"/>
</svg>
