<svg width="20" height="20" viewBox="0 0 20 20" fill="none" xmlns="http://www.w3.org/2000/svg">
<path fill-rule="evenodd" clip-rule="evenodd" d="M2.8 2C3.24183 2 3.6 2.35817 3.6 2.8V14.2497L6.90957 8.59587C7.04403 8.36616 7.28393 8.21837 7.54957 8.2016C7.81521 8.18483 8.0718 8.30127 8.23408 8.51224L9.67856 10.3901L14.0686 6H10.8C10.3582 6 10 5.64183 10 5.2C10 4.75817 10.3582 4.4 10.8 4.4H16C16.4418 4.4 16.8 4.75817 16.8 5.2V10C16.8 10.4418 16.4418 10.8 16 10.8C15.5582 10.8 15.2 10.4418 15.2 10V7.13137L10.1657 12.1657C10.0029 12.3285 9.77786 12.4132 9.54814 12.3983C9.31841 12.3834 9.10625 12.2703 8.96588 12.0878L7.69023 10.4294L4.19526 16.4H17.2C17.6418 16.4 18 16.7582 18 17.2C18 17.6418 17.6418 18 17.2 18H2.8C2.35817 18 2 17.6418 2 17.2V2.8C2 2.35817 2.35817 2 2.8 2Z" fill="white"/>
</svg>
