<svg width="20" height="20" viewBox="0 0 20 20" fill="none" xmlns="http://www.w3.org/2000/svg">
<path fill-rule="evenodd" clip-rule="evenodd" d="M3.60003 13.6V16.4H8.00003V13.6H3.60003ZM2.80003 12C2.3582 12 2.00003 12.3582 2.00003 12.8V17.2C2.00003 17.6419 2.3582 18 2.80003 18H8.80003C9.24186 18 9.60003 17.6419 9.60003 17.2V12.8C9.60003 12.3582 9.24186 12 8.80003 12H2.80003Z" fill="white"/>
<path fill-rule="evenodd" clip-rule="evenodd" d="M12 3.60003V6.40003H16.4V3.60003H12ZM11.2 2.00003C10.7582 2.00003 10.4 2.3582 10.4 2.80003V7.20003C10.4 7.64186 10.7582 8.00003 11.2 8.00003H17.2C17.6419 8.00003 18 7.64186 18 7.20003V2.80003C18 2.3582 17.6419 2.00003 17.2 2.00003H11.2Z" fill="white"/>
<path fill-rule="evenodd" clip-rule="evenodd" d="M3.60003 3.60003V9.60003H8.00003V3.60003H3.60003ZM2.80003 2.00003C2.3582 2.00003 2.00003 2.3582 2.00003 2.80003V10.4C2.00003 10.8419 2.3582 11.2 2.80003 11.2H8.80003C9.24186 11.2 9.60003 10.8419 9.60003 10.4V2.80003C9.60003 2.3582 9.24186 2.00003 8.80003 2.00003H2.80003Z" fill="white"/>
<path fill-rule="evenodd" clip-rule="evenodd" d="M12 10.4V16.4H16.4V10.4H12ZM11.2 8.8C10.7582 8.8 10.4 9.15818 10.4 9.6V17.2C10.4 17.6418 10.7582 18 11.2 18H17.2C17.6419 18 18 17.6418 18 17.2V9.6C18 9.15818 17.6419 8.8 17.2 8.8H11.2Z" fill="white"/>
</svg>
