<svg width="20" height="20" viewBox="0 0 20 20" fill="none" xmlns="http://www.w3.org/2000/svg">
<path fill-rule="evenodd" clip-rule="evenodd" d="M9.6 8.2C9.6 9.41503 8.61503 10.4 7.4 10.4C6.18497 10.4 5.2 9.41503 5.2 8.2C5.2 6.98497 6.18497 6 7.4 6C8.61503 6 9.6 6.98497 9.6 8.2ZM10.0942 10.8797C10.7777 10.1927 11.2 9.24565 11.2 8.2C11.2 6.10132 9.49868 4.4 7.4 4.4C5.30132 4.4 3.6 6.10132 3.6 8.2C3.6 9.24565 4.02234 10.1927 4.70575 10.8797C3.1041 11.6576 2 13.2999 2 15.2V17.2C2 17.6418 2.35817 18 2.8 18H12C12.4418 18 12.8 17.6418 12.8 17.2V15.2C12.8 13.2999 11.6959 11.6576 10.0942 10.8797ZM7.4 12H6.8C5.03269 12 3.6 13.4327 3.6 15.2V16.4H11.2V15.2C11.2 13.4327 9.76731 12 8 12H7.4Z" fill="white"/>
<path fill-rule="evenodd" clip-rule="evenodd" d="M12.6 8C13.8151 8 14.8 7.01503 14.8 5.8C14.8 4.58497 13.8151 3.6 12.6 3.6C11.709 3.6 10.9417 4.12971 10.5958 4.89139C10.2089 4.51757 9.75658 4.211 9.25769 3.99052C9.90088 2.80496 11.1565 2 12.6 2C14.6987 2 16.4 3.70132 16.4 5.8C16.4 6.84565 15.9777 7.79266 15.2943 8.47974C16.8959 9.25758 18 10.8999 18 12.8V14.8C18 15.2418 17.6419 15.6 17.2 15.6H13.6V15.2C13.6 14.788 13.5556 14.3865 13.4711 14H16.4V12.8C16.4 11.0327 14.9673 9.6 13.2 9.6H12.6H12C11.9263 9.6 11.8531 9.6025 11.7805 9.60741C11.923 9.16374 12 8.69075 12 8.2C12 8.10419 11.9971 8.00906 11.9913 7.91471C12.1846 7.97025 12.3889 8 12.6 8ZM10.4011 5.86869C10.4201 6.4871 10.6942 7.04128 11.1219 7.42944C11.1731 7.67827 11.2 7.93599 11.2 8.2C11.2 8.77817 11.0709 9.32618 10.8399 9.81677C9.85111 10.2016 9.10087 11.0638 8.87236 12.1203C8.59505 12.042 8.30244 12 8.00004 12H7.2664C7.36613 11.4056 7.57509 10.8482 7.87196 10.3493C8.70817 10.1665 9.36653 9.50814 9.5493 8.67192C9.66507 8.60304 9.78399 8.53889 9.90579 8.47974C9.79664 8.37001 9.69415 8.25365 9.59898 8.13131C9.58002 7.5129 9.30583 6.95872 8.87821 6.57056C8.82696 6.32173 8.80004 6.06401 8.80004 5.8C8.80004 5.42869 8.85329 5.06981 8.95258 4.7306C9.52421 4.98679 10.021 5.3801 10.4011 5.86869ZM11.2 15.6H12.8V15.2C12.8 14.7856 12.7475 14.3835 12.6488 14H10.9674C11.1174 14.3706 11.2 14.7756 11.2 15.2V15.6Z" fill="white"/>
<path fill-rule="evenodd" clip-rule="evenodd" d="M9.6 8.2C9.6 9.41503 8.61503 10.4 7.4 10.4C6.18497 10.4 5.2 9.41503 5.2 8.2C5.2 6.98497 6.18497 6 7.4 6C8.61503 6 9.6 6.98497 9.6 8.2ZM10.0942 10.8797C10.7777 10.1927 11.2 9.24565 11.2 8.2C11.2 6.10132 9.49868 4.4 7.4 4.4C5.30132 4.4 3.6 6.10132 3.6 8.2C3.6 9.24565 4.02234 10.1927 4.70575 10.8797C3.1041 11.6576 2 13.2999 2 15.2V17.2C2 17.6418 2.35817 18 2.8 18H12C12.4418 18 12.8 17.6418 12.8 17.2V15.2C12.8 13.2999 11.6959 11.6576 10.0942 10.8797ZM7.4 12H6.8C5.03269 12 3.6 13.4327 3.6 15.2V16.4H11.2V15.2C11.2 13.4327 9.76731 12 8 12H7.4Z" fill="white"/>
</svg>
