<svg width="20" height="20" viewBox="0 0 20 20" fill="none" xmlns="http://www.w3.org/2000/svg">
<path fill-rule="evenodd" clip-rule="evenodd" d="M16.2 2.8C16.2 2.35817 15.8418 2 15.4 2C14.9582 2 14.6 2.35817 14.6 2.8V3.50785C13.3315 3.85794 12.4 5.02019 12.4 6.4H14C14 5.92425 14.2373 5.50393 14.6 5.25094V7.54906C14.2373 7.29607 14 6.87575 14 6.4H12.4C12.4 7.77981 13.3315 8.94206 14.6 9.29215V11.9491C14.2373 11.6961 14 11.2758 14 10.8H12.4C12.4 12.1798 13.3315 13.3421 14.6 13.6922V14.4C14.6 14.8418 14.9582 15.2 15.4 15.2C15.8418 15.2 16.2 14.8418 16.2 14.4V13.6922C17.4685 13.3421 18.4 12.1798 18.4 10.8C18.4 9.42019 17.4685 8.25795 16.2 7.90785V5.25094C16.5627 5.50393 16.8 5.92425 16.8 6.4H18.4C18.4 5.02019 17.4685 3.85794 16.2 3.50785V2.8ZM16.2 11.9491C16.5627 11.6961 16.8 11.2757 16.8 10.8C16.8 10.3243 16.5627 9.90393 16.2 9.65094V11.9491ZM7.4 12H6.8C5.03269 12 3.6 13.4327 3.6 15.2V16.4H11.2V15.2C11.2 13.4327 9.76731 12 8 12H7.4ZM4.70575 10.8797C3.1041 11.6576 2 13.2999 2 15.2V17.2C2 17.6418 2.35817 18 2.8 18H12C12.4418 18 12.8 17.6418 12.8 17.2V15.2C12.8 13.2999 11.6959 11.6576 10.0942 10.8797C10.7777 10.1927 11.2 9.24565 11.2 8.2C11.2 6.10132 9.49868 4.4 7.4 4.4C5.30132 4.4 3.6 6.10132 3.6 8.2C3.6 9.24565 4.02234 10.1927 4.70575 10.8797ZM7.40207 10.4C8.61615 10.3989 9.6 9.41434 9.6 8.2C9.6 6.98497 8.61503 6 7.4 6C6.18497 6 5.2 6.98497 5.2 8.2C5.2 9.41434 6.18385 10.3989 7.39793 10.4C7.39862 10.4 7.39931 10.4 7.4 10.4C7.40069 10.4 7.40138 10.4 7.40207 10.4Z" fill="white"/>
</svg>
