<svg version="1.2" xmlns="http://www.w3.org/2000/svg" xmlns:xlink="http://www.w3.org/1999/xlink" overflow="visible" preserveAspectRatio="none" viewBox="0 0 24 24" width="16" height="16"><g><path xmlns:default="http://www.w3.org/2000/svg" id="file-word-o" d="M16,3.38c-0.23-0.22-0.5-0.39-0.79-0.5c-0.29-0.13-0.6-0.2-0.92-0.21H5c-0.55,0-1,0.45-1,1v16.66  c0,0.55,0.45,1,1,1h14c0.55,0,1-0.45,1-1v-12c-0.01-0.32-0.08-0.63-0.21-0.92c-0.11-0.29-0.28-0.56-0.5-0.79L16,3.38z M15.05,4.32  l3.26,3.26c0.11,0.13,0.19,0.27,0.23,0.43h-3.87V4.09c0.15,0.05,0.3,0.12,0.42,0.23H15.05z M18.66,20H5.34V4h8v4.34  c0,0.55,0.45,1,1,1h4.33V20l0,0H18.66z M6.43,10.67h3.12v1.11H8.62l1,4.56c0.04,0.16,0.06,0.32,0.07,0.48v0.22l0,0v-0.22V16.6  c0-0.11,0-0.19,0-0.26l1.5-5.67h1.19l1.5,5.67l0.05,0.26v0.22c0,0.02,0,0.05,0,0.07v0.08c0,0.02,0,0.05,0,0.07l0,0v-0.22  c0.01-0.16,0.03-0.32,0.07-0.48l1-4.56h-0.55v-1.11h3.12v1.11h-0.73l-1.71,6.88h-1.65l-1.33-5c-0.03-0.09-0.05-0.18-0.06-0.27  c0-0.07,0-0.14,0-0.21v-0.25l0,0c-0.01,0.25-0.05,0.49-0.12,0.73l-1.33,5H8.87l-1.71-6.88H6.43V10.67L6.43,10.67z" style="fill: rgb(116, 127, 132);" vector-effect="non-scaling-stroke"/></g></svg>