<svg id="Layer_1" data-name="Layer 1" xmlns="http://www.w3.org/2000/svg" viewBox="0 0 868.57 247.81"><defs><style>.cls-1{fill:#424242;}.cls-2{fill:#f05a28;}.cls-3{fill:#fff;}</style></defs><path class="cls-1" d="M240,159.59a39.56,39.56,0,0,1-15.05-2.85,33.42,33.42,0,0,1-12.14-8.44,40.75,40.75,0,0,1-8.11-13.75,54.3,54.3,0,0,1-3-18.69,53.2,53.2,0,0,1,3-18.62A41.54,41.54,0,0,1,213,83.29a35.24,35.24,0,0,1,12.33-8.7,38.52,38.52,0,0,1,15.12-3,30.51,30.51,0,0,1,14.28,3.25A37.78,37.78,0,0,1,265,82.38L257,92.11a29.47,29.47,0,0,0-7.27-5.39,18.91,18.91,0,0,0-8.82-2,21.4,21.4,0,0,0-9.54,2.14A22.26,22.26,0,0,0,223.8,93a28.81,28.81,0,0,0-4.93,9.67,44,44,0,0,0-1.75,12.85q0,14.53,6.3,22.77t17.06,8.25a20.72,20.72,0,0,0,10.12-2.41,31.37,31.37,0,0,0,8-6.29l8,9.47a36.31,36.31,0,0,1-11.87,9.15A34.16,34.16,0,0,1,240,159.59Z"/><path class="cls-1" d="M296.54,159.59a30.18,30.18,0,0,1-11.42-2.2,28.51,28.51,0,0,1-9.67-6.49,31.07,31.07,0,0,1-6.68-10.51,41.74,41.74,0,0,1,0-28.29,31,31,0,0,1,6.68-10.52,29.41,29.41,0,0,1,21.09-8.82A30,30,0,0,1,308,95a28.62,28.62,0,0,1,9.67,6.55,32.62,32.62,0,0,1,6.68,10.52,37.21,37.21,0,0,1,2.53,14.14,37.3,37.3,0,0,1-2.53,14.15,32.68,32.68,0,0,1-6.68,10.51,27.75,27.75,0,0,1-9.67,6.49A30.69,30.69,0,0,1,296.54,159.59Zm.82-12.22a12.65,12.65,0,0,0,10.21-5.75q4-5.77,4-15.38t-4-15.51q-4.47-6.42-12.64-5.7a11.87,11.87,0,0,0-7.45,3.39q-5.87,6-5.86,17.82,0,9.69,4,15.48A13.5,13.5,0,0,0,297.36,147.37Z"/><path class="cls-1" d="M332.62,158V94.32H345l1,8.69h.52a45.14,45.14,0,0,1,8.76-7.27,19.61,19.61,0,0,1,10.7-3q7,0,11.23,3a18.62,18.62,0,0,1,6.42,8.44A51.77,51.77,0,0,1,393.09,96a19.68,19.68,0,0,1,11-3.24q10.11,0,14.92,6.55t4.8,18.75v40H408.8V120q0-7.91-2.4-11.16t-7.33-3.24q-6,0-13.37,7.91V158H370.77V120q0-7.91-2.4-11.16t-7.46-3.24q-6,0-13.37,7.91V158Z"/><path class="cls-1" d="M432.93,158V94.32h12.33l1,8.69h.52a45.14,45.14,0,0,1,8.76-7.27,19.67,19.67,0,0,1,10.71-3q7,0,11.22,3a18.71,18.71,0,0,1,6.43,8.44A51.11,51.11,0,0,1,493.41,96a19.65,19.65,0,0,1,11-3.24q10.13,0,14.93,6.55t4.8,18.75v40H509.11V120q0-7.91-2.4-11.16t-7.33-3.24q-6,0-13.37,7.91V158H471.09V120q0-7.91-2.4-11.16c-1.61-2.16-4.09-3.24-7.47-3.24q-6,0-13.36,7.91V158Z"/><path class="cls-1" d="M560.5,159.59a33,33,0,0,1-12.33-2.27,29.29,29.29,0,0,1-10-6.55,30,30,0,0,1-6.68-10.45,38.37,38.37,0,0,1-2.41-14.08,37.94,37.94,0,0,1,2.47-14,32.24,32.24,0,0,1,6.55-10.51,29.11,29.11,0,0,1,9.41-6.61,26.83,26.83,0,0,1,10.9-2.34A27.54,27.54,0,0,1,569.84,95a22.32,22.32,0,0,1,8.25,6.22,27.52,27.52,0,0,1,5,9.61,41.79,41.79,0,0,1,1.69,12.2c0,1.47-.07,2.85-.2,4.15a28.46,28.46,0,0,1-.45,3.11H543.63q1,8.56,6,13.18a18.15,18.15,0,0,0,12.79,4.6,23.53,23.53,0,0,0,7.72-1.23,34.08,34.08,0,0,0,7.07-3.44l5.06,9.35a45.94,45.94,0,0,1-10.12,4.93A35.38,35.38,0,0,1,560.5,159.59Zm-17-39.45h28.29q0-7.4-3.18-11.61t-9.8-4.22a14.15,14.15,0,0,0-10,4Q544.55,112.37,543.5,120.14Z"/><path class="cls-1" d="M590,158V94.32h12.33l1,11.29h.51A26.67,26.67,0,0,1,612,96.07a18,18,0,0,1,17.13-2l-2.6,13a27.52,27.52,0,0,0-3.11-.77,19.31,19.31,0,0,0-3.5-.26,13.89,13.89,0,0,0-7.92,2.92q-4.15,2.91-7.14,10.18V158Z"/><path class="cls-1" d="M654.58,159.59a33,33,0,0,1-12.13-2.2,27.45,27.45,0,0,1-9.8-6.49,30.09,30.09,0,0,1-6.49-10.51,40.3,40.3,0,0,1-2.33-14.15,36.45,36.45,0,0,1,2.59-14.14,31.14,31.14,0,0,1,7-10.52A30.67,30.67,0,0,1,643.62,95a32.92,32.92,0,0,1,12.13-2.27,25.2,25.2,0,0,1,10.71,2.08,34.84,34.84,0,0,1,8,5.06l-7.27,9.73a24.82,24.82,0,0,0-5.12-3.44,12.48,12.48,0,0,0-5.52-1.23,15.58,15.58,0,0,0-12.59,5.77q-4.8,5.77-4.8,15.51t4.74,15.38a15.1,15.1,0,0,0,12.26,5.77,15.84,15.84,0,0,0,7.07-1.62,31.29,31.29,0,0,0,6-3.83l6.1,9.87a31.94,31.94,0,0,1-20.77,7.78Z"/><path class="cls-1" d="M686.38,83.16a9.52,9.52,0,0,1-6.62-2.34,7.82,7.82,0,0,1-2.59-6.1,8,8,0,0,1,2.59-6.16,10.3,10.3,0,0,1,13.24,0,8,8,0,0,1,2.59,6.16,7.82,7.82,0,0,1-2.59,6.1A9.52,9.52,0,0,1,686.38,83.16ZM678.85,158V94.32h14.93V158Z"/><path class="cls-1" d="M729.85,159.59a30.18,30.18,0,0,1-11.42-2.2,28.51,28.51,0,0,1-9.67-6.49,31.07,31.07,0,0,1-6.68-10.51,41.74,41.74,0,0,1,0-28.29,31,31,0,0,1,6.68-10.52,29.41,29.41,0,0,1,21.09-8.82A30,30,0,0,1,741.34,95a28.62,28.62,0,0,1,9.67,6.55,32.62,32.62,0,0,1,6.68,10.52,37.21,37.21,0,0,1,2.53,14.14,37.3,37.3,0,0,1-2.53,14.15A32.68,32.68,0,0,1,751,150.9a27.75,27.75,0,0,1-9.67,6.49A30.69,30.69,0,0,1,729.85,159.59Zm.82-12.22a12.65,12.65,0,0,0,10.21-5.75q4-5.77,4-15.38t-4-15.51q-4.47-6.42-12.64-5.7a11.87,11.87,0,0,0-7.45,3.39q-5.87,6-5.86,17.82,0,9.69,4,15.48A13.5,13.5,0,0,0,730.67,147.37Z"/><path class="cls-1" d="M792,159.59a30.18,30.18,0,0,1-11.42-2.2,28.47,28.47,0,0,1-9.66-6.49,30.94,30.94,0,0,1-6.69-10.51,38.31,38.31,0,0,1-2.46-14.15,38.22,38.22,0,0,1,2.46-14.14,30.89,30.89,0,0,1,6.69-10.52A29.37,29.37,0,0,1,792,92.76,30,30,0,0,1,803.5,95a28.52,28.52,0,0,1,9.67,6.55,32.45,32.45,0,0,1,6.68,10.52,37.21,37.21,0,0,1,2.53,14.14,37.3,37.3,0,0,1-2.53,14.15,32.51,32.51,0,0,1-6.68,10.51,27.66,27.66,0,0,1-9.67,6.49A30.69,30.69,0,0,1,792,159.59Zm.82-12.22a12.69,12.69,0,0,0,10.22-5.75q4-5.77,4-15.38t-4-15.51q-4.49-6.42-12.65-5.7a11.87,11.87,0,0,0-7.45,3.39q-5.87,6-5.86,17.82,0,9.69,4,15.48A13.5,13.5,0,0,0,792.83,147.37Z"/><path class="cls-2" d="M145.39,163.65H72.71a19.87,19.87,0,0,1-19.8-18.21l-6.65-79.5A19.88,19.88,0,0,1,66.07,44.4h86a19.88,19.88,0,0,1,19.81,21.54l-6.65,79.5A19.87,19.87,0,0,1,145.39,163.65Z"/><path class="cls-3" d="M109.06,146.76a42.73,42.73,0,1,1,30.21-72.94,7.94,7.94,0,0,1-1,12.09,8.16,8.16,0,0,1-10.45-1.06,26.84,26.84,0,0,0-37.74.21A26.92,26.92,0,0,0,96.79,128a22.6,22.6,0,0,0,4.48,1.81,27,27,0,0,0,26.6-6.62,8.08,8.08,0,0,1,9.74-1.44,8,8,0,0,1,1.66,12.53A42.41,42.41,0,0,1,109.06,146.76Z"/><circle class="cls-2" cx="89.18" cy="189.49" r="13.91"/><circle class="cls-2" cx="128.93" cy="189.49" r="13.91"/></svg>