<svg xmlns="http://www.w3.org/2000/svg" viewBox="0 0 776.19 159"><defs><style>.cls-1{fill:#fff;}.cls-2{fill:#f15a29;}</style></defs><g id="Layer_2" data-name="Layer 2"><g id="Layer_1-2" data-name="Layer 1"><path class="cls-1" d="M193.77,115.19a39.57,39.57,0,0,1-15.05-2.86,33.39,33.39,0,0,1-12.14-8.43,40.8,40.8,0,0,1-8.11-13.76,54.3,54.3,0,0,1-3-18.69,53.24,53.24,0,0,1,3-18.62,41.74,41.74,0,0,1,8.3-13.95,35.22,35.22,0,0,1,12.33-8.69,38.52,38.52,0,0,1,15.12-3,30.42,30.42,0,0,1,14.28,3.25A38,38,0,0,1,218.82,38l-8,9.74a29.22,29.22,0,0,0-7.27-5.39,18.91,18.91,0,0,0-8.82-2,21.27,21.27,0,0,0-9.54,2.14,22.14,22.14,0,0,0-7.53,6.1,28.71,28.71,0,0,0-4.93,9.67,44,44,0,0,0-1.75,12.84q0,14.55,6.3,22.78t17.06,8.24a20.82,20.82,0,0,0,10.12-2.4,31.82,31.82,0,0,0,8.05-6.29l8,9.47A36.31,36.31,0,0,1,208.63,112,34.16,34.16,0,0,1,193.77,115.19Z"/><path class="cls-1" d="M250.35,115.19A30.19,30.19,0,0,1,238.93,113a28.36,28.36,0,0,1-9.67-6.49A31,31,0,0,1,222.58,96a38.25,38.25,0,0,1-2.47-14.14,38.27,38.27,0,0,1,2.47-14.15,31,31,0,0,1,6.68-10.51,29.37,29.37,0,0,1,21.09-8.83,30,30,0,0,1,11.49,2.27,28.5,28.5,0,0,1,9.67,6.56,32.57,32.57,0,0,1,6.68,10.51,37.26,37.26,0,0,1,2.53,14.15A37.25,37.25,0,0,1,278.19,96a32.57,32.57,0,0,1-6.68,10.51,27.62,27.62,0,0,1-9.67,6.49A30.7,30.7,0,0,1,250.35,115.19Zm.82-12.22a12.64,12.64,0,0,0,10.21-5.76q4-5.76,4-15.37t-4-15.51q-4.47-6.42-12.64-5.7A11.81,11.81,0,0,0,241.29,64q-5.86,6-5.86,17.83,0,9.68,4,15.47A13.51,13.51,0,0,0,251.17,103Z"/><path class="cls-1" d="M286.43,113.63V49.91h12.33l1,8.7h.51a44.78,44.78,0,0,1,8.77-7.27,19.62,19.62,0,0,1,10.7-3q7,0,11.23,3a18.54,18.54,0,0,1,6.42,8.43,51.37,51.37,0,0,1,9.47-8.17,19.68,19.68,0,0,1,11-3.25q10.13,0,14.93,6.56t4.8,18.75v40H362.61v-38q0-7.92-2.4-11.16c-1.61-2.17-4-3.25-7.34-3.25q-6,0-13.36,7.92v44.51H324.58v-38q0-7.92-2.4-11.16t-7.46-3.25q-6,0-13.37,7.92v44.51Z"/><path class="cls-1" d="M386.74,113.63V49.91h12.33l1,8.7h.52a44.43,44.43,0,0,1,8.76-7.27,19.68,19.68,0,0,1,10.71-3q7,0,11.22,3a18.62,18.62,0,0,1,6.43,8.43,51,51,0,0,1,9.47-8.17,19.63,19.63,0,0,1,11-3.25q10.13,0,14.92,6.56T478,73.66v40H462.92v-38q0-7.92-2.4-11.16t-7.33-3.25q-6,0-13.37,7.92v44.51H424.9v-38q0-7.92-2.4-11.16c-1.61-2.17-4.09-3.25-7.47-3.25q-6,0-13.36,7.92v44.51Z"/><path class="cls-1" d="M514.31,115.19A33.16,33.16,0,0,1,502,112.92a29.31,29.31,0,0,1-10-6.56,29.87,29.87,0,0,1-6.68-10.44,38.41,38.41,0,0,1-2.41-14.08,37.87,37.87,0,0,1,2.47-14,32.14,32.14,0,0,1,6.55-10.51,29.14,29.14,0,0,1,9.41-6.62,26.83,26.83,0,0,1,10.9-2.34,27.7,27.7,0,0,1,11.42,2.21,22.34,22.34,0,0,1,8.25,6.23,27.38,27.38,0,0,1,5,9.6,41.84,41.84,0,0,1,1.69,12.2c0,1.47-.07,2.86-.2,4.16a28.83,28.83,0,0,1-.45,3.11H497.44q1,8.56,6,13.17a18.16,18.16,0,0,0,12.79,4.61A23.27,23.27,0,0,0,524,102.4,34,34,0,0,0,531.05,99l5.06,9.34A45.94,45.94,0,0,1,526,113.24,35.13,35.13,0,0,1,514.31,115.19Zm-17-39.45H525.6q0-7.41-3.18-11.62t-9.8-4.22a14.16,14.16,0,0,0-10,4Q498.35,68,497.31,75.74Z"/><path class="cls-1" d="M543.77,113.63V49.91H556.1l1,11.29h.51a26.84,26.84,0,0,1,8.18-9.54,18,18,0,0,1,17.13-2l-2.6,13a27.7,27.7,0,0,0-3.11-.78,20.26,20.26,0,0,0-3.5-.26,14,14,0,0,0-7.92,2.92q-4.16,2.92-7.14,10.19v38.93Z"/><path class="cls-1" d="M608.39,115.19A33,33,0,0,1,596.26,113a27.32,27.32,0,0,1-9.8-6.49A30,30,0,0,1,580,96a40.24,40.24,0,0,1-2.33-14.14,36.5,36.5,0,0,1,2.59-14.15,31.09,31.09,0,0,1,7-10.51,30.54,30.54,0,0,1,10.19-6.56,32.92,32.92,0,0,1,12.13-2.27,25.38,25.38,0,0,1,10.71,2.08,34.84,34.84,0,0,1,8,5.06L621,65.22a25.16,25.16,0,0,0-5.12-3.43,12.35,12.35,0,0,0-5.52-1.24,15.59,15.59,0,0,0-12.59,5.78q-4.8,5.78-4.8,15.51t4.74,15.37A15.08,15.08,0,0,0,610,103a15.84,15.84,0,0,0,7.07-1.62,31.77,31.77,0,0,0,6-3.83l6.1,9.86a32,32,0,0,1-20.77,7.79Z"/><path class="cls-1" d="M640.19,38.75a9.56,9.56,0,0,1-6.62-2.33,7.82,7.82,0,0,1-2.59-6.1,8,8,0,0,1,2.59-6.17,10.33,10.33,0,0,1,13.24,0,8,8,0,0,1,2.59,6.17,7.82,7.82,0,0,1-2.59,6.1A9.56,9.56,0,0,1,640.19,38.75Zm-7.53,74.88V49.91h14.93v63.72Z"/><path class="cls-1" d="M683.66,115.19A30.19,30.19,0,0,1,672.24,113a28.36,28.36,0,0,1-9.67-6.49A31,31,0,0,1,655.89,96a38.25,38.25,0,0,1-2.47-14.14,38.27,38.27,0,0,1,2.47-14.15,31,31,0,0,1,6.68-10.51,29.37,29.37,0,0,1,21.09-8.83,30,30,0,0,1,11.49,2.27,28.5,28.5,0,0,1,9.67,6.56,32.57,32.57,0,0,1,6.68,10.51A37.26,37.26,0,0,1,714,81.84,37.25,37.25,0,0,1,711.5,96a32.57,32.57,0,0,1-6.68,10.51,27.62,27.62,0,0,1-9.67,6.49A30.7,30.7,0,0,1,683.66,115.19Zm.82-12.22a12.64,12.64,0,0,0,10.21-5.76q4-5.76,4-15.37t-4-15.51q-4.47-6.42-12.64-5.7A11.81,11.81,0,0,0,674.6,64q-5.86,6-5.86,17.83,0,9.68,4,15.47A13.51,13.51,0,0,0,684.48,103Z"/><path class="cls-1" d="M745.82,115.19A30.19,30.19,0,0,1,734.4,113a28.32,28.32,0,0,1-9.66-6.49A30.85,30.85,0,0,1,718.05,96a38.25,38.25,0,0,1-2.46-14.14,38.27,38.27,0,0,1,2.46-14.15,30.85,30.85,0,0,1,6.69-10.51,29.32,29.32,0,0,1,21.08-8.83,30,30,0,0,1,11.49,2.27A28.4,28.4,0,0,1,767,57.18a32.4,32.4,0,0,1,6.68,10.51,37.26,37.26,0,0,1,2.53,14.15A37.25,37.25,0,0,1,773.66,96,32.4,32.4,0,0,1,767,106.49a27.53,27.53,0,0,1-9.67,6.49A30.7,30.7,0,0,1,745.82,115.19Zm.82-12.22a12.67,12.67,0,0,0,10.22-5.76q4-5.76,4-15.37t-4-15.51q-4.49-6.42-12.65-5.7A11.81,11.81,0,0,0,736.76,64q-5.87,6-5.86,17.83,0,9.68,4,15.47A13.51,13.51,0,0,0,746.64,103Z"/><path class="cls-2" d="M99.2,119.25H26.52A19.87,19.87,0,0,1,6.72,101L.07,21.53A19.88,19.88,0,0,1,19.88,0h86a19.88,19.88,0,0,1,19.81,21.53L119,101A19.87,19.87,0,0,1,99.2,119.25Z"/><path class="cls-1" d="M62.86,102.36A42.74,42.74,0,1,1,93.08,29.41a8,8,0,0,1-1,12.1,8.18,8.18,0,0,1-10.45-1.06,26.86,26.86,0,1,0-31,43.1,21.45,21.45,0,0,0,4.48,1.81,27,27,0,0,0,26.6-6.61,8.07,8.07,0,0,1,9.74-1.44,8,8,0,0,1,1.66,12.53A42.46,42.46,0,0,1,62.86,102.36Z"/><circle class="cls-2" cx="42.99" cy="145.09" r="13.91"/><circle class="cls-2" cx="82.74" cy="145.09" r="13.91"/></g></g></svg>